<svg xmlns="http://www.w3.org/2000/svg" version="1.0" width="50.000000pt" height="55.000000pt" viewBox="0 0 180.000000 185.000000" preserveAspectRatio="xMidYMid meet">

  <g transform="translate(0.000000,185.000000) scale(0.100000,-0.100000)" fill="#ab1b30" stroke="none">
    <path d="M460 1397 l-445 -445 442 -448 442 -448 445 445 445 445 -442 448 -442 447 -445 -444z m412 -14 c122 -125 142 -157 142 -234 2 -106 -86 -193 -198 -196 -69 -2 -63 7 -91 -125 -9 -43 -20 -78 -24 -78 -4 0 -29 22 -56 50 l-48 49 26 88 27 88 -42 42 -42 43 -58 -57 -58 -57 -45 44 c-25 24 -45 49 -45 55 0 10 389 395 400 395 3 0 54 -48 112 -107z m420 -420 c82 -81 148 -153 148 -158 0 -6 -16 -26 -35 -45 l-35 -34 -155 154 -155 154 37 38 c20 21 39 38 42 38 3 0 72 -66 153 -147z m-160 -160 c82 -81 148 -152 148 -157 0 -15 -62 -76 -76 -76 -7 0 -78 68 -158 152 l-146 152 37 38 c20 21 39 38 42 38 3 0 72 -66 153 -147z m-160 -160 c82 -81 148 -152 148 -157 0 -14 -62 -76 -74 -76 -6 0 -78 68 -160 151 l-149 150 38 39 c22 22 41 40 44 40 3 0 72 -66 153 -147z"/>
    <path d="M710 1255 l-64 -65 44 -46 c41 -42 93 -74 119 -74 6 0 26 14 46 31 55 49 45 97 -37 176 l-44 43 -64 -65z"/>
  </g>
</svg>
